<svg width="703" height="39" viewBox="0 0 703 39" fill="none" xmlns="http://www.w3.org/2000/svg">
<path d="M26.1859 1.72816L25.9121 2.20118C24.4183 4.80692 23.1238 7.41265 22.0284 10.0184L21.8043 10.591L21.4807 10.4167C21.0989 7.89397 20.211 5.89402 18.8168 4.41688C17.4227 2.93975 15.7381 2.20118 13.763 2.20118C11.6552 2.20118 9.89591 3.12231 8.48516 4.96459C6.70928 7.25498 5.82133 11.1387 5.82133 16.6157C5.82133 21.3293 6.63459 25.0221 8.2611 27.6943C9.90421 30.3664 12.178 31.7025 15.0825 31.7025C17.4061 31.7025 19.2567 30.9307 20.6342 29.3872C22.0284 27.827 22.8582 25.603 23.1238 22.7151C23.1902 22.0181 23.4723 21.6695 23.9702 21.6695C24.6175 21.6695 24.9412 22.2089 24.9412 23.2877C24.9412 24.8977 24.576 26.5657 23.8457 28.2918C22.3022 31.9431 19.1156 33.7688 14.2858 33.7688C9.9706 33.7688 6.54331 32.2585 4.00395 29.2378C1.4646 26.2005 0.194928 22.1011 0.194928 16.9394C0.194928 12.176 1.51439 8.18442 4.15333 4.96459C6.79226 1.74476 10.0702 0.134841 13.9871 0.134841C15.846 0.134841 17.9621 0.59126 20.3355 1.5041C21.5802 1.98541 22.6093 2.22607 23.4225 2.22607C24.3022 2.22607 25.0905 1.98541 25.7876 1.5041L26.1859 1.72816ZM18.9662 6.0351C17.4559 4.82351 16.0285 4.21772 14.6842 4.21772C10.3855 4.21772 8.23621 8.31719 8.23621 16.5161C8.23621 20.2505 8.73412 23.3624 9.72994 25.852C10.7258 28.325 12.1282 29.9266 13.9373 30.6568V30.9058C11.9788 30.5075 10.4104 29.0054 9.23203 26.3997C8.07024 23.7774 7.48934 20.4662 7.48934 16.4664C7.48934 7.88567 9.84612 3.59533 14.5597 3.59533C16.153 3.59533 17.6218 4.3007 18.9662 5.71146V6.0351ZM27.0822 23.1384C26.8166 27.2544 25.6631 30.3913 23.6217 32.5489C21.5968 34.6899 18.7587 35.7604 15.1074 35.7604C12.3357 35.7604 9.75484 34.9057 7.36486 33.1962V32.997C9.48928 34.3912 12.0535 35.0883 15.0576 35.0883C18.3438 35.0883 21.0242 34.0343 23.0989 31.9265C24.1113 30.8975 24.8582 29.744 25.3395 28.466C25.8208 27.1881 26.1444 25.4952 26.3104 23.3873L26.3602 22.8147L27.0822 23.1384ZM28.0033 2.92315L27.7295 3.39616C25.9204 6.48322 24.4764 9.29642 23.3976 11.8358L22.7254 11.5121L22.9993 10.8897C23.8291 9.14705 24.5594 7.7031 25.1901 6.55791L27.1818 3.02273L27.4307 2.57461L28.0033 2.92315ZM52.7495 0.956396L50.1604 3.89408L54.2433 14.7486L55.2391 14.2009L51.5545 4.39199L54.1935 1.35473L54.8408 1.62858L52.3263 4.54136L55.8117 13.8274C56.0109 13.678 56.127 13.5868 56.1602 13.5536L56.9818 12.8565C57.4797 12.4582 57.795 12.176 57.9278 12.01C58.3593 13.9021 59.0232 15.595 59.9195 17.0887C59.4382 17.0555 59.0896 17.039 58.8739 17.039C57.2971 17.039 56.1436 17.2879 55.4134 17.7858L59.9195 30.0096L63.6538 32.8974H51.0815L54.5171 30.0096L51.7537 22.74C49.928 24.5823 48.5256 26.3333 47.5464 27.993L46.9738 27.8436C47.953 26.2171 49.4135 24.3998 51.3554 22.3915L51.5545 22.1426L51.0815 21.0471C49.1065 22.6903 47.4717 24.5989 46.1771 26.7731L45.729 26.0512C44.8659 24.6736 43.7622 23.1052 42.4179 21.3459L42.1689 21.0471C40.8909 23.8852 40.2519 26.1922 40.2519 27.9681C40.2519 29.0137 40.4262 29.9017 40.7748 30.6319C41.1399 31.3456 42.0029 32.5489 43.3639 34.2418C43.4801 34.3912 43.6626 34.6235 43.9116 34.9389H30.468L29.9701 34.2667H42.6419L42.2187 33.7439C41.1233 32.4161 40.4013 31.3871 40.0528 30.6568C39.7208 29.91 39.5549 29.0386 39.5549 28.0428C39.5549 26.3499 40.2436 23.8272 41.6212 20.4745L40.5258 19.3293C40.31 19.8605 40.0362 20.6405 39.7042 21.6695L38.8827 24.2089C38.4346 25.5698 38.2105 26.6984 38.2105 27.5947C38.2105 28.5241 38.3682 29.2959 38.6835 29.91C38.9989 30.5241 39.6628 31.3622 40.6752 32.4244C40.7748 32.524 40.9241 32.6817 41.1233 32.8974H28.6755C31.0489 31.6693 32.9243 30.0179 34.3019 27.9432C35.6961 25.8686 37.0736 22.6654 38.4346 18.3335L38.5342 17.985C37.6545 17.2381 36.3848 16.7817 34.7251 16.6157C35.638 15.2548 36.3433 13.8357 36.8412 12.3586C37.0736 12.5743 37.2147 12.7071 37.2645 12.7569L38.3848 13.8025C38.7665 14.1677 39.2229 14.5411 39.754 14.9228L40.2022 13.8274L39.9034 13.5785C39.0736 12.8482 38.3765 12.259 37.8122 11.8109L37.5881 11.6366L37.9864 11.0889C38.8661 11.6698 39.7125 12.342 40.5258 13.1054L43.9116 3.79449L41.2727 0.956396H52.7495ZM46.6003 8.94788L43.8618 16.1676C44.0112 16.3336 44.0942 16.4332 44.1108 16.4664L45.1315 17.6116C45.6792 18.209 46.3763 19.1385 47.2227 20.3999L47.4717 20.7733C48.1853 19.8771 49.0318 18.9891 50.011 18.1095L46.6003 8.94788ZM45.48 6.05999L41.5216 16.5161C42.783 17.8107 43.8701 19.0887 44.7829 20.3501L45.9281 21.9434C45.9447 21.96 46.0277 22.0679 46.1771 22.267C46.3265 22.1177 46.4095 22.0264 46.4261 21.9932L46.7746 21.57C46.8244 21.5036 46.9157 21.3957 47.0484 21.2463C45.8867 19.4538 44.534 17.8356 42.9905 16.3917L46.1771 7.97695L45.48 6.05999ZM60.1186 13.205C60.4838 14.6988 61.3966 16.7485 62.8572 19.3542C62.492 19.3045 62.2846 19.2796 62.2348 19.2796L60.2182 19.1053C59.3054 19.0223 58.6415 18.9808 58.2266 18.9808C58.1602 18.9808 57.9942 18.9891 57.7287 19.0057L61.8862 30.0345L67.4379 34.9389H53.0234L52.5504 34.2667H65.7699L61.2887 30.3083L56.8573 18.5825C57.4216 18.4331 58.0689 18.3584 58.7992 18.3584C59.6954 18.3584 60.6912 18.4331 61.7866 18.5825L61.4879 18.0348C60.4257 16.0763 59.712 14.3087 59.3469 12.732L60.1186 13.205ZM69.4545 3.94387C73.388 1.67007 77.6202 0.533171 82.1512 0.533171C85.6698 0.533171 88.566 1.29664 90.8398 2.82357C93.1302 4.3505 94.2754 6.29235 94.2754 8.64914C94.2754 10.5744 93.5285 12.2839 92.0348 13.7776C90.5411 15.2548 88.4996 16.3253 85.9105 16.9892C87.0557 20.1426 88.6075 23.2131 90.566 26.2005C92.541 29.188 94.5161 31.4784 96.4911 33.0717L96.1177 33.1962C93.6447 34.0426 91.2215 35.2376 88.8482 36.7812L88.4747 37.0301L88.3502 36.2335C87.288 29.8104 85.8026 24.3666 83.8939 19.9019L83.7943 19.653C82.6492 20.1841 81.1139 20.6073 79.1887 20.9227L78.9895 20.9476V30.2585L83.3711 34.9389H70.5001L70.1018 34.2667H81.9521L78.3422 30.4328V20.3999L78.865 20.3252C80.7571 20.126 82.3421 19.7526 83.6201 19.2049C83.5205 19.0057 83.4624 18.8812 83.4458 18.8314L83.1969 18.1095C83.1803 18.0597 83.1388 17.9601 83.0724 17.8107C82.0434 18.1095 80.1015 18.4331 77.2468 18.7816L76.973 18.8314V29.9349L79.8111 32.8974H68.8072L72.0436 29.9349V21.57L71.8445 21.5948C70.8818 21.8106 70.0105 22.0513 69.2304 22.3168L69.0313 22.3915L68.8072 21.8936C69.5375 21.6114 70.1101 21.4206 70.525 21.321L71.8445 20.9974L72.0436 20.9476V19.653C71.0644 19.653 69.8445 19.8688 68.384 20.3003L68.1101 20.3999C68.1433 20.1675 68.3093 19.6281 68.608 18.7816C68.6412 18.7153 68.7574 18.3418 68.9566 17.6613C68.9732 17.6116 68.9981 17.5369 69.0313 17.4373C69.7781 17.4871 70.359 17.512 70.774 17.512C71.2221 17.512 71.637 17.4871 72.0187 17.4373V5.18865C71.2553 4.72393 70.4669 4.3339 69.6536 4.01855L69.4545 3.94387ZM76.973 3.29658V16.7153C77.4543 16.7153 77.9107 16.6738 78.3422 16.5908V4.3422C79.2551 4.09324 80.3505 3.96876 81.6284 3.96876C84.8649 3.96876 87.064 5.03098 88.2258 7.1554C86.9976 6.15958 85.9188 5.4791 84.9893 5.11396C84.0599 4.73223 82.9479 4.54136 81.6533 4.54136C80.6409 4.54136 79.753 4.64094 78.9895 4.84011V16.5908L79.2634 16.541C82.533 15.9435 84.9561 15.0058 86.5329 13.7278C88.1262 12.4333 88.9228 10.757 88.9228 8.69893C88.9228 6.85665 88.2092 5.33802 86.7818 4.14303C85.3545 2.93145 83.5537 2.32565 81.3795 2.32565C79.6368 2.32565 78.1679 2.6493 76.973 3.29658ZM88.9975 18.2339C90.0431 21.6529 91.8937 24.9972 94.5492 28.2669C96.209 30.3083 98.3085 32.1423 100.848 33.7688C97.0471 34.7812 93.4787 36.3247 90.1427 38.3994L89.9187 38.5488L89.4208 38.1504C92.5908 36.0758 95.9683 34.5489 99.5533 33.5696C94.7733 30.383 91.0141 25.2877 88.2756 18.2837L88.1262 17.8605C93.2049 15.9352 95.7442 12.9976 95.7442 9.04747C95.7442 7.42095 95.0887 5.64507 93.7775 3.71981C95.4538 5.24674 96.2919 7.18859 96.2919 9.54538C96.2919 13.3627 93.8605 16.2589 88.9975 18.2339ZM101.346 4.3422C105.296 1.73646 109.727 0.433588 114.64 0.433588C118.208 0.433588 121.121 1.23855 123.378 2.84846C125.636 4.44178 126.764 6.50811 126.764 9.04747C126.764 12.4333 124.806 14.6988 120.889 15.844V16.1178C121.287 16.2174 121.768 16.3502 122.333 16.5161C124.175 16.0846 125.619 15.205 126.665 13.8772C127.727 12.5494 128.258 10.9478 128.258 9.07236C128.258 6.71558 127.287 4.62435 125.345 2.79867V2.6493L125.619 2.87336C127.793 4.54966 128.88 6.69898 128.88 9.32132C128.88 12.9395 127.005 15.4622 123.254 16.8896C124.88 17.6364 126.142 18.6987 127.038 20.0762C127.951 21.4538 128.407 23.0056 128.407 24.7317C128.407 27.2047 127.511 29.188 125.719 30.6817C123.926 32.1589 121.536 32.8974 118.549 32.8974H100.723L104.159 29.9598V19.18C103.18 19.18 102.035 19.2796 100.723 19.4787L100.524 18.7567C102.001 18.6074 103.213 18.5327 104.159 18.5327V17.2132H103.537C102.607 17.2132 101.437 17.2796 100.026 17.4124L101.122 15.0224L101.52 15.0473C102.167 15.0971 102.657 15.122 102.989 15.122C103.487 15.122 103.877 15.1469 104.159 15.1967V5.83593L101.346 4.3422ZM109.138 3.96876V15.1967C109.321 15.1801 109.445 15.1718 109.512 15.1718L109.96 15.1967C110.026 15.1967 110.167 15.1967 110.383 15.1967V5.01438C111.81 4.3505 113.204 4.01855 114.565 4.01855C116.125 4.01855 117.354 4.3007 118.25 4.865C119.163 5.42931 119.934 6.39193 120.565 7.75289L119.868 7.35456C118.623 5.4791 116.847 4.54136 114.54 4.54136C113.246 4.54136 112.084 4.9065 111.055 5.63677V15.1967H112.101C115.271 15.1967 117.627 14.6739 119.171 13.6283C120.731 12.566 121.511 10.9478 121.511 8.77361C121.511 6.86495 120.864 5.32972 119.569 4.16793C118.291 2.98954 116.607 2.40034 114.516 2.40034C112.673 2.40034 110.881 2.92315 109.138 3.96876ZM109.138 17.2381V30.9556H110.383V18.7319C111.561 18.6489 112.408 18.6074 112.922 18.6074C115.677 18.6074 117.669 18.8646 118.897 19.3791C120.142 19.8936 121.129 20.8729 121.86 22.3168H121.561C120.748 21.1716 119.727 20.3833 118.499 19.9517C117.271 19.5036 115.47 19.2796 113.096 19.2796L111.055 19.3293V30.9556H111.852L115.462 30.8311C120.142 30.4992 122.482 28.2254 122.482 24.0097C122.482 21.3708 121.71 19.57 120.167 18.6074C118.623 17.6281 115.735 17.1385 111.503 17.1385C111.088 17.1385 110.3 17.1717 109.138 17.2381ZM127.785 18.9808C129.561 20.3584 130.449 22.4496 130.449 25.2545C130.449 28.076 129.461 30.4079 127.486 32.2502C125.561 34.0426 122.731 34.9389 118.997 34.9389H102.068L101.644 34.2667H117.354C120.773 34.2667 123.237 33.9182 124.748 33.2211C128.1 31.661 129.777 28.9473 129.777 25.0802C129.777 22.9226 129.013 20.9642 127.486 19.2049L127.785 18.9808ZM152.954 6.50811L152.531 6.25916C150.938 5.37951 149.477 4.93969 148.149 4.93969C143.784 4.93969 141.602 9.23003 141.602 17.8107C141.602 24.0844 142.955 28.242 145.66 30.2834L145.436 30.5324C143.776 29.354 142.589 27.8104 141.876 25.9018C141.179 23.9765 140.83 21.3791 140.83 18.1095C140.83 8.89809 143.253 4.29241 148.1 4.29241C150.307 4.29241 151.925 5.03098 152.954 6.50811ZM147.627 0.632753C151.66 0.632753 154.88 2.15968 157.286 5.21354C159.709 8.2674 160.921 12.3503 160.921 17.4622C160.921 22.2919 159.726 26.1424 157.336 29.0137C154.963 31.885 151.768 33.3207 147.751 33.3207C144.581 33.3207 141.76 32.3083 139.287 30.2834C135.652 27.2959 133.834 22.8728 133.834 17.0141C133.834 12.0017 135.079 8.01845 137.569 5.06417C140.058 2.10989 143.411 0.632753 147.627 0.632753ZM147.627 2.77377C142.017 2.77377 139.212 7.7031 139.212 17.5618C139.212 26.6735 141.975 31.2294 147.502 31.2294C150.075 31.2294 152.033 30.0262 153.378 27.6196C154.722 25.1964 155.394 21.6612 155.394 17.0141C155.394 11.7528 154.747 8.08484 153.452 6.0102C152.091 3.85258 150.149 2.77377 147.627 2.77377ZM155.568 1.90243C157.942 3.04763 159.817 5.00608 161.195 7.77779C162.572 10.5495 163.261 13.7527 163.261 17.3875C163.261 22.7317 161.9 27.047 159.178 30.3332C156.473 33.6194 152.913 35.2625 148.498 35.2625C145.677 35.2625 143.038 34.3082 140.581 32.3995V32.2751C142.639 33.7854 145.22 34.5406 148.324 34.5406C152.49 34.5406 155.909 32.9721 158.581 29.8353C161.253 26.6984 162.589 22.6903 162.589 17.8107C162.589 14.176 161.975 10.9976 160.747 8.2757C159.535 5.55378 157.809 3.52064 155.568 2.17628V1.90243ZM193.883 0.956396C191.991 1.93562 190.771 2.83186 190.223 3.64512C189.393 4.9065 188.978 6.80686 188.978 9.34621V10.9644V32.8974H184.771L173.02 10.0931V23.6114L172.995 24.7317L173.294 28.3167C173.626 29.9764 174.381 31.2045 175.56 32.0012L175.759 32.1755C173.468 31.412 172.323 28.9639 172.323 24.8313L172.348 22.4911V8.8732L171.004 6.25916V20.599C171.004 25.1466 171.302 28.1258 171.9 29.5365C172.497 30.9473 173.9 31.9763 176.107 32.6236L178.273 34.9389H164.78L164.381 34.2667H176.854L175.56 32.8974H163.958C165.983 32.1672 167.327 31.188 167.991 29.9598C168.655 28.7316 168.987 26.6238 168.987 23.6363V3.71981L165.676 0.956396H178.273L174.738 3.32148L186.787 26.8229V23.8355L176.456 3.71981L179.941 1.35473L180.414 1.82774L177.327 3.91897L186.787 22.4911V10.8648V9.54538C186.787 6.65749 186.547 4.73223 186.065 3.7696C185.601 2.79037 184.439 1.85264 182.58 0.956396H193.883ZM194.754 2.79867L194.306 3.54554C193.028 3.84429 192.157 4.40029 191.692 5.21354C191.244 6.0102 191.02 7.36286 191.02 9.27153V34.9389H185.667L185.343 34.2667H190.348V9.52048C190.348 7.1803 190.646 5.55378 191.244 4.64094C191.858 3.71151 193.028 3.09742 194.754 2.79867ZM235.01 1.72816L234.736 2.20118C233.243 4.80692 231.948 7.41265 230.853 10.0184L230.629 10.591L230.305 10.4167C229.923 7.89397 229.035 5.89402 227.641 4.41688C226.247 2.93975 224.562 2.20118 222.587 2.20118C220.479 2.20118 218.72 3.12231 217.309 4.96459C215.534 7.25498 214.646 11.1387 214.646 16.6157C214.646 21.3293 215.459 25.0221 217.085 27.6943C218.728 30.3664 221.002 31.7025 223.907 31.7025C226.23 31.7025 228.081 30.9307 229.458 29.3872C230.853 27.827 231.683 25.603 231.948 22.7151C232.014 22.0181 232.297 21.6695 232.795 21.6695C233.442 21.6695 233.765 22.2089 233.765 23.2877C233.765 24.8977 233.4 26.5657 232.67 28.2918C231.126 31.9431 227.94 33.7688 223.11 33.7688C218.795 33.7688 215.368 32.2585 212.828 29.2378C210.289 26.2005 209.019 22.1011 209.019 16.9394C209.019 12.176 210.339 8.18442 212.978 4.96459C215.617 1.74476 218.894 0.134841 222.811 0.134841C224.67 0.134841 226.786 0.59126 229.16 1.5041C230.405 1.98541 231.434 2.22607 232.247 2.22607C233.126 2.22607 233.915 1.98541 234.612 1.5041L235.01 1.72816ZM227.79 6.0351C226.28 4.82351 224.853 4.21772 223.508 4.21772C219.21 4.21772 217.06 8.31719 217.06 16.5161C217.06 20.2505 217.558 23.3624 218.554 25.852C219.55 28.325 220.952 29.9266 222.762 30.6568V30.9058C220.803 30.5075 219.235 29.0054 218.056 26.3997C216.895 23.7774 216.314 20.4662 216.314 16.4664C216.314 7.88567 218.67 3.59533 223.384 3.59533C224.977 3.59533 226.446 4.3007 227.79 5.71146V6.0351ZM235.906 23.1384C235.641 27.2544 234.487 30.3913 232.446 32.5489C230.421 34.6899 227.583 35.7604 223.932 35.7604C221.16 35.7604 218.579 34.9057 216.189 33.1962V32.997C218.314 34.3912 220.878 35.0883 223.882 35.0883C227.168 35.0883 229.849 34.0343 231.923 31.9265C232.936 30.8975 233.682 29.744 234.164 28.466C234.645 27.1881 234.969 25.4952 235.135 23.3873L235.184 22.8147L235.906 23.1384ZM236.828 2.92315L236.554 3.39616C234.745 6.48322 233.301 9.29642 232.222 11.8358L231.55 11.5121L231.824 10.8897C232.653 9.14705 233.384 7.7031 234.014 6.55791L236.006 3.02273L236.255 2.57461L236.828 2.92315ZM239.691 3.94387C243.624 1.67007 247.856 0.533171 252.387 0.533171C255.906 0.533171 258.802 1.29664 261.076 2.82357C263.366 4.3505 264.511 6.29235 264.511 8.64914C264.511 10.5744 263.765 12.2839 262.271 13.7776C260.777 15.2548 258.736 16.3253 256.147 16.9892C257.292 20.1426 258.844 23.2131 260.802 26.2005C262.777 29.188 264.752 31.4784 266.727 33.0717L266.354 33.1962C263.881 34.0426 261.458 35.2376 259.084 36.7812L258.711 37.0301L258.586 36.2335C257.524 29.8104 256.039 24.3666 254.13 19.9019L254.03 19.653C252.885 20.1841 251.35 20.6073 249.425 20.9227L249.226 20.9476V30.2585L253.607 34.9389H240.736L240.338 34.2667H252.188L248.578 30.4328V20.3999L249.101 20.3252C250.993 20.126 252.578 19.7526 253.856 19.2049C253.757 19.0057 253.699 18.8812 253.682 18.8314L253.433 18.1095C253.416 18.0597 253.375 17.9601 253.308 17.8107C252.279 18.1095 250.338 18.4331 247.483 18.7816L247.209 18.8314V29.9349L250.047 32.8974H239.043L242.28 29.9349V21.57L242.081 21.5948C241.118 21.8106 240.247 22.0513 239.467 22.3168L239.267 22.3915L239.043 21.8936C239.774 21.6114 240.346 21.4206 240.761 21.321L242.081 20.9974L242.28 20.9476V19.653C241.3 19.653 240.081 19.8688 238.62 20.3003L238.346 20.3999C238.379 20.1675 238.545 19.6281 238.844 18.7816C238.877 18.7153 238.994 18.3418 239.193 17.6613C239.209 17.6116 239.234 17.5369 239.267 17.4373C240.014 17.4871 240.595 17.512 241.01 17.512C241.458 17.512 241.873 17.4871 242.255 17.4373V5.18865C241.491 4.72393 240.703 4.3339 239.89 4.01855L239.691 3.94387ZM247.209 3.29658V16.7153C247.69 16.7153 248.147 16.6738 248.578 16.5908V4.3422C249.491 4.09324 250.587 3.96876 251.865 3.96876C255.101 3.96876 257.3 5.03098 258.462 7.1554C257.234 6.15958 256.155 5.4791 255.225 5.11396C254.296 4.73223 253.184 4.54136 251.889 4.54136C250.877 4.54136 249.989 4.64094 249.226 4.84011V16.5908L249.499 16.541C252.769 15.9435 255.192 15.0058 256.769 13.7278C258.362 12.4333 259.159 10.757 259.159 8.69893C259.159 6.85665 258.445 5.33802 257.018 4.14303C255.591 2.93145 253.79 2.32565 251.616 2.32565C249.873 2.32565 248.404 2.6493 247.209 3.29658ZM259.234 18.2339C260.279 21.6529 262.13 24.9972 264.785 28.2669C266.445 30.3083 268.545 32.1423 271.084 33.7688C267.283 34.7812 263.715 36.3247 260.379 38.3994L260.155 38.5488L259.657 38.1504C262.827 36.0758 266.204 34.5489 269.789 33.5696C265.009 30.383 261.25 25.2877 258.512 18.2837L258.362 17.8605C263.441 15.9352 265.98 12.9976 265.98 9.04747C265.98 7.42095 265.325 5.64507 264.014 3.71981C265.69 5.24674 266.528 7.18859 266.528 9.54538C266.528 13.3627 264.097 16.2589 259.234 18.2339ZM297.921 0.956396L297.523 1.42941C295.83 3.50405 294.486 5.88572 293.49 8.57445C293.324 8.19272 293.2 7.91057 293.117 7.728C292.204 5.73635 291.224 4.45008 290.179 3.86918C289.133 3.28828 287.258 2.99783 284.552 2.99783C283.308 2.99783 281.814 3.03933 280.071 3.12231V14.5743H281.665V4.44178C282.926 4.3256 284.129 4.26751 285.274 4.26751C287.382 4.26751 288.934 4.49157 289.93 4.93969C290.926 5.38781 291.814 6.25916 292.594 7.55373C292.361 7.38776 292.195 7.26328 292.096 7.1803C290.751 6.11808 289.781 5.48739 289.183 5.28823C288.586 5.08907 287.407 4.98948 285.648 4.98948C285.117 4.98948 284.171 5.02268 282.81 5.08907L282.287 5.11396V14.5743H286.868L290.079 10.1678V20.8978L286.868 16.7402H280.071V30.7066H281.665V17.9103H287.067L287.714 18.5576H282.287V30.7066C285.673 30.7066 288.079 30.466 289.507 29.9847C290.934 29.5033 292.054 28.5573 292.868 27.1466L294.187 24.8811C294.237 24.7815 294.336 24.5989 294.486 24.3334C294.917 26.159 295.448 27.6196 296.079 28.715C296.726 29.8104 297.789 31.0884 299.266 32.5489H271.358L275.142 29.661V18.5576C273.748 18.7236 272.486 19.1551 271.358 19.8522L271.009 19.3293C272.022 18.5991 273.399 18.1261 275.142 17.9103V16.7402C274.86 16.707 274.661 16.6904 274.544 16.6904C272.852 16.6904 271.308 17.3128 269.914 18.5576C270.677 15.9021 272.42 14.5743 275.142 14.5743V3.94387L271.358 0.956396H297.921ZM299.116 2.69909L298.942 2.92315C296.917 5.64507 295.565 7.92716 294.884 9.76944L294.461 9.24663C295.573 6.67409 297.009 4.3173 298.768 2.17628L299.116 2.69909ZM291.797 10.9893V21.9932L291.175 21.6695V10.6657L291.797 10.9893ZM302.104 32.6983L300.809 34.9389H273.623L273.225 34.2667H300.486L301.332 32.6983C298.942 30.4909 297.258 28.1341 296.278 25.6279L297.075 25.9267C297.988 28.0511 299.531 30.1755 301.706 32.3L302.104 32.6983ZM303.398 0.956396H313.207C318.004 0.956396 321.556 1.87753 323.863 3.71981C327.298 6.44173 329.016 10.7072 329.016 16.5161C329.016 22.5409 327.514 26.8976 324.51 29.5863C323.149 30.7979 321.622 31.6527 319.929 32.1506C318.253 32.6485 316.02 32.8974 313.232 32.8974H302.652L306.062 30.2834V3.81939L303.398 0.956396ZM310.942 3.04763V30.9805H312.311V4.69074C313.174 4.55796 313.962 4.49157 314.676 4.49157C316.037 4.49157 317.108 4.63265 317.888 4.9148C318.684 5.18035 319.481 5.67826 320.278 6.40853C318.518 5.57868 316.635 5.16375 314.626 5.16375C314.195 5.16375 313.631 5.19695 312.933 5.26333V30.9805C314.792 30.9805 316.203 30.8311 317.166 30.5324C318.128 30.217 319.041 29.6195 319.904 28.7399C322.311 26.3001 323.514 22.2006 323.514 16.4415C323.514 10.8151 322.211 6.97283 319.605 4.9148C318.029 3.67002 315.531 3.04763 312.112 3.04763H310.942ZM304.195 34.9389L303.822 34.2667H312.933C317.415 34.2667 320.817 33.6443 323.141 32.3995C328.136 29.744 330.634 24.6072 330.634 16.9892C330.634 11.8939 329.514 8.10973 327.273 5.63677L326.277 4.54136C326.244 4.50817 326.145 4.39199 325.979 4.19282C329.497 6.40023 331.257 10.6242 331.257 16.8647C331.257 23.4205 329.514 28.2503 326.029 31.3539C323.356 33.7439 318.991 34.9389 312.933 34.9389H304.195ZM333.472 0.956396H345.273L341.937 4.3422V30.2585L345.074 32.8974H333.472L336.933 30.0345V4.06835L333.472 0.956396ZM346.393 2.37544L343.854 4.8899V30.2585L348.036 34.9389H335.091L334.468 34.2667H346.567L343.157 30.5075V4.66584L345.97 1.87753L346.393 2.37544ZM376.816 0.956396C376.666 1.23855 376.567 1.42941 376.517 1.52899L374.824 4.51647C374.243 5.57868 373.704 6.90644 373.206 8.49976L373.156 8.62424L372.907 8.44997L372.832 8.12633C372.351 6.23426 371.662 4.92309 370.766 4.19282C369.886 3.46255 368.534 3.09742 366.708 3.09742C365.961 3.09742 365.214 3.13061 364.467 3.197H364.169V30.1838L367.106 32.8974H355.729L359.214 29.9847V5.21354L357.447 5.18865C355.737 5.18865 354.517 5.52889 353.787 6.20937C353.073 6.87325 352.65 8.05164 352.517 9.74454H351.87C352.053 7.80269 352.551 6.45002 353.364 5.68656C354.194 4.92309 355.555 4.54136 357.447 4.54136L358.94 4.56626H359.214V3.34637C358.368 3.24679 357.563 3.197 356.799 3.197C354.658 3.197 353.115 3.63682 352.169 4.51647C351.223 5.37951 350.7 6.84835 350.6 8.92299H350.302C349.588 6.616 348.484 4.04345 346.991 1.20535L346.841 0.956396H376.816ZM378.384 2.52482C377.239 3.98536 376.035 6.40853 374.774 9.79433L374.675 10.0433L374.127 9.57027L374.201 9.34621C375.43 5.91062 376.616 3.52064 377.762 2.17628L377.886 2.02691L378.384 2.52482ZM371.737 6.40853C370.459 5.57868 368.965 5.16375 367.256 5.16375C366.874 5.16375 366.476 5.18865 366.061 5.23844L366.16 30.2585L370.119 34.9389H357.397L356.824 34.2667H368.749L365.413 30.4577V4.51647L366.758 4.49157C368.368 4.49157 369.505 4.62435 370.168 4.8899C370.849 5.13886 371.372 5.64507 371.737 6.40853ZM417.495 1.72816L417.221 2.20118C415.727 4.80692 414.433 7.41265 413.337 10.0184L413.113 10.591L412.79 10.4167C412.408 7.89397 411.52 5.89402 410.126 4.41688C408.732 2.93975 407.047 2.20118 405.072 2.20118C402.964 2.20118 401.205 3.12231 399.794 4.96459C398.018 7.25498 397.13 11.1387 397.13 16.6157C397.13 21.3293 397.944 25.0221 399.57 27.6943C401.213 30.3664 403.487 31.7025 406.392 31.7025C408.715 31.7025 410.566 30.9307 411.943 29.3872C413.337 27.827 414.167 25.603 414.433 22.7151C414.499 22.0181 414.781 21.6695 415.279 21.6695C415.927 21.6695 416.25 22.2089 416.25 23.2877C416.25 24.8977 415.885 26.5657 415.155 28.2918C413.611 31.9431 410.425 33.7688 405.595 33.7688C401.28 33.7688 397.852 32.2585 395.313 29.2378C392.774 26.2005 391.504 22.1011 391.504 16.9394C391.504 12.176 392.823 8.18442 395.462 4.96459C398.101 1.74476 401.379 0.134841 405.296 0.134841C407.155 0.134841 409.271 0.59126 411.644 1.5041C412.889 1.98541 413.918 2.22607 414.732 2.22607C415.611 2.22607 416.4 1.98541 417.097 1.5041L417.495 1.72816ZM410.275 6.0351C408.765 4.82351 407.338 4.21772 405.993 4.21772C401.695 4.21772 399.545 8.31719 399.545 16.5161C399.545 20.2505 400.043 23.3624 401.039 25.852C402.035 28.325 403.437 29.9266 405.246 30.6568V30.9058C403.288 30.5075 401.719 29.0054 400.541 26.3997C399.379 23.7774 398.798 20.4662 398.798 16.4664C398.798 7.88567 401.155 3.59533 405.869 3.59533C407.462 3.59533 408.931 4.3007 410.275 5.71146V6.0351ZM418.391 23.1384C418.126 27.2544 416.972 30.3913 414.931 32.5489C412.906 34.6899 410.068 35.7604 406.416 35.7604C403.645 35.7604 401.064 34.9057 398.674 33.1962V32.997C400.798 34.3912 403.363 35.0883 406.367 35.0883C409.653 35.0883 412.333 34.0343 414.408 31.9265C415.42 30.8975 416.167 29.744 416.649 28.466C417.13 27.1881 417.453 25.4952 417.619 23.3873L417.669 22.8147L418.391 23.1384ZM419.312 2.92315L419.038 3.39616C417.229 6.48322 415.785 9.29642 414.707 11.8358L414.034 11.5121L414.308 10.8897C415.138 9.14705 415.868 7.7031 416.499 6.55791L418.491 3.02273L418.74 2.57461L419.312 2.92315ZM447.992 0.956396L447.594 1.42941C445.901 3.50405 444.556 5.88572 443.561 8.57445C443.395 8.19272 443.27 7.91057 443.187 7.728C442.274 5.73635 441.295 4.45008 440.25 3.86918C439.204 3.28828 437.328 2.99783 434.623 2.99783C433.378 2.99783 431.885 3.03933 430.142 3.12231V14.5743H431.735V4.44178C432.997 4.3256 434.2 4.26751 435.345 4.26751C437.453 4.26751 439.005 4.49157 440.001 4.93969C440.996 5.38781 441.884 6.25916 442.664 7.55373C442.432 7.38776 442.266 7.26328 442.167 7.1803C440.822 6.11808 439.851 5.48739 439.254 5.28823C438.656 5.08907 437.478 4.98948 435.719 4.98948C435.187 4.98948 434.241 5.02268 432.88 5.08907L432.358 5.11396V14.5743H436.938L440.15 10.1678V20.8978L436.938 16.7402H430.142V30.7066H431.735V17.9103H437.138L437.785 18.5576H432.358V30.7066C435.743 30.7066 438.15 30.466 439.577 29.9847C441.005 29.5033 442.125 28.5573 442.938 27.1466L444.258 24.8811C444.308 24.7815 444.407 24.5989 444.556 24.3334C444.988 26.159 445.519 27.6196 446.15 28.715C446.797 29.8104 447.859 31.0884 449.336 32.5489H421.428L425.213 29.661V18.5576C423.818 18.7236 422.557 19.1551 421.428 19.8522L421.08 19.3293C422.092 18.5991 423.47 18.1261 425.213 17.9103V16.7402C424.93 16.707 424.731 16.6904 424.615 16.6904C422.922 16.6904 421.379 17.3128 419.985 18.5576C420.748 15.9021 422.491 14.5743 425.213 14.5743V3.94387L421.428 0.956396H447.992ZM449.187 2.69909L449.013 2.92315C446.988 5.64507 445.635 7.92716 444.955 9.76944L444.532 9.24663C445.644 6.67409 447.079 4.3173 448.839 2.17628L449.187 2.69909ZM441.868 10.9893V21.9932L441.245 21.6695V10.6657L441.868 10.9893ZM452.175 32.6983L450.88 34.9389H423.694L423.296 34.2667H450.556L451.403 32.6983C449.013 30.4909 447.328 28.1341 446.349 25.6279L447.146 25.9267C448.058 28.0511 449.602 30.1755 451.776 32.3L452.175 32.6983ZM453.892 3.94387C457.826 1.67007 462.058 0.533171 466.589 0.533171C470.108 0.533171 473.004 1.29664 475.278 2.82357C477.568 4.3505 478.713 6.29235 478.713 8.64914C478.713 10.5744 477.966 12.2839 476.473 13.7776C474.979 15.2548 472.937 16.3253 470.348 16.9892C471.494 20.1426 473.045 23.2131 475.004 26.2005C476.979 29.188 478.954 31.4784 480.929 33.0717L480.556 33.1962C478.083 34.0426 475.659 35.2376 473.286 36.7812L472.913 37.0301L472.788 36.2335C471.726 29.8104 470.24 24.3666 468.332 19.9019L468.232 19.653C467.087 20.1841 465.552 20.6073 463.626 20.9227L463.427 20.9476V30.2585L467.809 34.9389H454.938L454.54 34.2667H466.39L462.78 30.4328V20.3999L463.303 20.3252C465.195 20.126 466.78 19.7526 468.058 19.2049C467.958 19.0057 467.9 18.8812 467.884 18.8314L467.635 18.1095C467.618 18.0597 467.577 17.9601 467.51 17.8107C466.481 18.1095 464.539 18.4331 461.685 18.7816L461.411 18.8314V29.9349L464.249 32.8974H453.245L456.481 29.9349V21.57L456.282 21.5948C455.32 21.8106 454.448 22.0513 453.668 22.3168L453.469 22.3915L453.245 21.8936C453.975 21.6114 454.548 21.4206 454.963 21.321L456.282 20.9974L456.481 20.9476V19.653C455.502 19.653 454.282 19.8688 452.822 20.3003L452.548 20.3999C452.581 20.1675 452.747 19.6281 453.046 18.7816C453.079 18.7153 453.195 18.3418 453.394 17.6613C453.411 17.6116 453.436 17.5369 453.469 17.4373C454.216 17.4871 454.797 17.512 455.212 17.512C455.66 17.512 456.075 17.4871 456.457 17.4373V5.18865C455.693 4.72393 454.905 4.3339 454.091 4.01855L453.892 3.94387ZM461.411 3.29658V16.7153C461.892 16.7153 462.349 16.6738 462.78 16.5908V4.3422C463.693 4.09324 464.788 3.96876 466.066 3.96876C469.303 3.96876 471.502 5.03098 472.664 7.1554C471.435 6.15958 470.357 5.4791 469.427 5.11396C468.498 4.73223 467.386 4.54136 466.091 4.54136C465.079 4.54136 464.191 4.64094 463.427 4.84011V16.5908L463.701 16.541C466.971 15.9435 469.394 15.0058 470.971 13.7278C472.564 12.4333 473.361 10.757 473.361 8.69893C473.361 6.85665 472.647 5.33802 471.22 4.14303C469.792 2.93145 467.992 2.32565 465.817 2.32565C464.075 2.32565 462.606 2.6493 461.411 3.29658ZM473.435 18.2339C474.481 21.6529 476.332 24.9972 478.987 28.2669C480.647 30.3083 482.746 32.1423 485.286 33.7688C481.485 34.7812 477.917 36.3247 474.581 38.3994L474.357 38.5488L473.859 38.1504C477.029 36.0758 480.406 34.5489 483.991 33.5696C479.211 30.383 475.452 25.2877 472.713 18.2837L472.564 17.8605C477.643 15.9352 480.182 12.9976 480.182 9.04747C480.182 7.42095 479.526 5.64507 478.215 3.71981C479.892 5.24674 480.73 7.18859 480.73 9.54538C480.73 13.3627 478.298 16.2589 473.435 18.2339ZM512.895 0.956396C512.746 1.23855 512.646 1.42941 512.596 1.52899L510.903 4.51647C510.322 5.57868 509.783 6.90644 509.285 8.49976L509.235 8.62424L508.986 8.44997L508.912 8.12633C508.43 6.23426 507.741 4.92309 506.845 4.19282C505.966 3.46255 504.613 3.09742 502.787 3.09742C502.04 3.09742 501.294 3.13061 500.547 3.197H500.248V30.1838L503.186 32.8974H491.808L495.294 29.9847V5.21354L493.526 5.18865C491.817 5.18865 490.597 5.52889 489.866 6.20937C489.153 6.87325 488.73 8.05164 488.597 9.74454H487.949C488.132 7.80269 488.63 6.45002 489.443 5.68656C490.273 4.92309 491.634 4.54136 493.526 4.54136L495.02 4.56626H495.294V3.34637C494.447 3.24679 493.642 3.197 492.879 3.197C490.738 3.197 489.194 3.63682 488.248 4.51647C487.302 5.37951 486.779 6.84835 486.68 8.92299H486.381C485.667 6.616 484.564 4.04345 483.07 1.20535L482.921 0.956396H512.895ZM514.463 2.52482C513.318 3.98536 512.115 6.40853 510.853 9.79433L510.754 10.0433L510.206 9.57027L510.281 9.34621C511.509 5.91062 512.696 3.52064 513.841 2.17628L513.965 2.02691L514.463 2.52482ZM507.816 6.40853C506.538 5.57868 505.044 5.16375 503.335 5.16375C502.953 5.16375 502.555 5.18865 502.14 5.23844L502.24 30.2585L506.198 34.9389H493.476L492.904 34.2667H504.829L501.493 30.4577V4.51647L502.837 4.49157C504.447 4.49157 505.584 4.62435 506.248 4.8899C506.928 5.13886 507.451 5.64507 507.816 6.40853ZM514.663 0.956396H526.463L523.127 4.3422V30.2585L526.264 32.8974H514.663L518.123 30.0345V4.06835L514.663 0.956396ZM527.583 2.37544L525.044 4.8899V30.2585L529.226 34.9389H516.281L515.658 34.2667H527.758L524.347 30.5075V4.66584L527.16 1.87753L527.583 2.37544ZM530.795 0.956396H556.636C555.607 2.31736 554.869 3.38787 554.421 4.16793C553.989 4.94799 553.433 6.20107 552.753 7.92716L552.554 8.42508C551.458 6.16787 550.371 4.70733 549.292 4.04345C548.23 3.37957 546.429 3.04763 543.89 3.04763L542.471 3.07252L540.056 3.04763L539.135 3.02273V14.6739H540.653V4.39199L541.375 4.36709C542.404 4.3173 543.5 4.29241 544.662 4.29241C548.047 4.29241 550.164 5.17205 551.01 6.93134C550.197 6.15128 549.309 5.62847 548.346 5.36292C547.4 5.08077 545.931 4.93969 543.94 4.93969C543.226 4.93969 542.338 4.98118 541.276 5.06417V14.6739H545.035L549.018 10.4665V20.8978L544.836 16.7651H539.135V29.3125L542.321 32.5489H530.098L534.156 29.3125V18.6074C532.878 18.6074 531.757 19.0887 530.795 20.0513L530.322 19.5285C531.284 18.4663 532.562 17.9352 534.156 17.9352V16.7651C533.807 16.7319 533.558 16.7153 533.409 16.7153C531.865 16.7153 530.529 17.346 529.401 18.6074L529.226 18.209C529.973 16.0514 531.616 14.873 534.156 14.6739V4.16793L530.795 0.956396ZM558.528 2.47503C556.155 5.24674 554.661 7.78609 554.047 10.0931L553.524 9.74454C554.155 7.1388 555.674 4.57456 558.08 2.0518L558.528 2.47503ZM550.836 11.3379V22.0928L550.188 21.7193V10.9644L550.836 11.3379ZM546.379 18.8563H541.276V29.5116L545.657 34.9389H531.243L530.621 34.2667H544.263L540.653 29.8104V18.1842H545.657L546.379 18.8563ZM558.379 0.956396H570.18L566.844 4.3422V30.2585L569.981 32.8974H558.379L561.84 30.0345V4.06835L558.379 0.956396ZM571.3 2.37544L568.761 4.8899V30.2585L572.943 34.9389H559.997L559.375 34.2667H571.474L568.064 30.5075V4.66584L570.877 1.87753L571.3 2.37544ZM600.129 1.72816L599.855 2.20118C598.361 4.80692 597.067 7.41265 595.971 10.0184L595.747 10.591L595.424 10.4167C595.042 7.89397 594.154 5.89402 592.76 4.41688C591.366 2.93975 589.681 2.20118 587.706 2.20118C585.598 2.20118 583.839 3.12231 582.428 4.96459C580.652 7.25498 579.764 11.1387 579.764 16.6157C579.764 21.3293 580.578 25.0221 582.204 27.6943C583.847 30.3664 586.121 31.7025 589.026 31.7025C591.349 31.7025 593.2 30.9307 594.577 29.3872C595.971 27.827 596.801 25.603 597.067 22.7151C597.133 22.0181 597.415 21.6695 597.913 21.6695C598.561 21.6695 598.884 22.2089 598.884 23.2877C598.884 24.8977 598.519 26.5657 597.789 28.2918C596.245 31.9431 593.059 33.7688 588.229 33.7688C583.914 33.7688 580.486 32.2585 577.947 29.2378C575.408 26.2005 574.138 22.1011 574.138 16.9394C574.138 12.176 575.458 8.18442 578.096 4.96459C580.735 1.74476 584.013 0.134841 587.93 0.134841C589.789 0.134841 591.905 0.59126 594.279 1.5041C595.523 1.98541 596.552 2.22607 597.366 2.22607C598.245 2.22607 599.034 1.98541 599.731 1.5041L600.129 1.72816ZM592.909 6.0351C591.399 4.82351 589.972 4.21772 588.627 4.21772C584.329 4.21772 582.179 8.31719 582.179 16.5161C582.179 20.2505 582.677 23.3624 583.673 25.852C584.669 28.325 586.071 29.9266 587.88 30.6568V30.9058C585.922 30.5075 584.354 29.0054 583.175 26.3997C582.013 23.7774 581.432 20.4662 581.432 16.4664C581.432 7.88567 583.789 3.59533 588.503 3.59533C590.096 3.59533 591.565 4.3007 592.909 5.71146V6.0351ZM601.025 23.1384C600.76 27.2544 599.606 30.3913 597.565 32.5489C595.54 34.6899 592.702 35.7604 589.051 35.7604C586.279 35.7604 583.698 34.9057 581.308 33.1962V32.997C583.432 34.3912 585.997 35.0883 589.001 35.0883C592.287 35.0883 594.967 34.0343 597.042 31.9265C598.054 30.8975 598.801 29.744 599.283 28.466C599.764 27.1881 600.088 25.4952 600.254 23.3873L600.303 22.8147L601.025 23.1384ZM601.946 2.92315L601.673 3.39616C599.863 6.48322 598.42 9.29642 597.341 11.8358L596.669 11.5121L596.942 10.8897C597.772 9.14705 598.503 7.7031 599.133 6.55791L601.125 3.02273L601.374 2.57461L601.946 2.92315ZM626.693 0.956396L624.104 3.89408L628.186 14.7486L629.182 14.2009L625.498 4.39199L628.137 1.35473L628.784 1.62858L626.269 4.54136L629.755 13.8274C629.954 13.678 630.07 13.5868 630.103 13.5536L630.925 12.8565C631.423 12.4582 631.738 12.176 631.871 12.01C632.303 13.9021 632.966 15.595 633.863 17.0887C633.381 17.0555 633.033 17.039 632.817 17.039C631.24 17.039 630.087 17.2879 629.357 17.7858L633.863 30.0096L637.597 32.8974H625.025L628.46 30.0096L625.697 22.74C623.871 24.5823 622.469 26.3333 621.49 27.993L620.917 27.8436C621.896 26.2171 623.357 24.3998 625.299 22.3915L625.498 22.1426L625.025 21.0471C623.05 22.6903 621.415 24.5989 620.12 26.7731L619.672 26.0512C618.809 24.6736 617.705 23.1052 616.361 21.3459L616.112 21.0471C614.834 23.8852 614.195 26.1922 614.195 27.9681C614.195 29.0137 614.369 29.9017 614.718 30.6319C615.083 31.3456 615.946 32.5489 617.307 34.2418C617.423 34.3912 617.606 34.6235 617.855 34.9389H604.411L603.913 34.2667H616.585L616.162 33.7439C615.066 32.4161 614.344 31.3871 613.996 30.6568C613.664 29.91 613.498 29.0386 613.498 28.0428C613.498 26.3499 614.187 23.8272 615.564 20.4745L614.469 19.3293C614.253 19.8605 613.979 20.6405 613.647 21.6695L612.826 24.2089C612.378 25.5698 612.154 26.6984 612.154 27.5947C612.154 28.5241 612.311 29.2959 612.627 29.91C612.942 30.5241 613.606 31.3622 614.618 32.4244C614.718 32.524 614.867 32.6817 615.066 32.8974H602.619C604.992 31.6693 606.868 30.0179 608.245 27.9432C609.639 25.8686 611.017 22.6654 612.378 18.3335L612.477 17.985C611.598 17.2381 610.328 16.7817 608.668 16.6157C609.581 15.2548 610.286 13.8357 610.784 12.3586C611.017 12.5743 611.158 12.7071 611.208 12.7569L612.328 13.8025C612.71 14.1677 613.166 14.5411 613.697 14.9228L614.145 13.8274L613.847 13.5785C613.017 12.8482 612.32 12.259 611.755 11.8109L611.531 11.6366L611.93 11.0889C612.809 11.6698 613.656 12.342 614.469 13.1054L617.855 3.79449L615.216 0.956396H626.693ZM620.543 8.94788L617.805 16.1676C617.954 16.3336 618.037 16.4332 618.054 16.4664L619.075 17.6116C619.622 18.209 620.319 19.1385 621.166 20.3999L621.415 20.7733C622.129 19.8771 622.975 18.9891 623.954 18.1095L620.543 8.94788ZM619.423 6.05999L615.465 16.5161C616.726 17.8107 617.813 19.0887 618.726 20.3501L619.871 21.9434C619.888 21.96 619.971 22.0679 620.12 22.267C620.27 22.1177 620.353 22.0264 620.369 21.9932L620.718 21.57C620.768 21.5036 620.859 21.3957 620.992 21.2463C619.83 19.4538 618.477 17.8356 616.934 16.3917L620.12 7.97695L619.423 6.05999ZM634.062 13.205C634.427 14.6988 635.34 16.7485 636.8 19.3542C636.435 19.3045 636.228 19.2796 636.178 19.2796L634.161 19.1053C633.249 19.0223 632.585 18.9808 632.17 18.9808C632.103 18.9808 631.937 18.9891 631.672 19.0057L635.829 30.0345L641.381 34.9389H626.967L626.494 34.2667H639.713L635.232 30.3083L630.8 18.5825C631.365 18.4331 632.012 18.3584 632.742 18.3584C633.639 18.3584 634.634 18.4331 635.73 18.5825L635.431 18.0348C634.369 16.0763 633.655 14.3087 633.29 12.732L634.062 13.205ZM669.986 0.956396C669.837 1.23855 669.737 1.42941 669.687 1.52899L667.994 4.51647C667.414 5.57868 666.874 6.90644 666.376 8.49976L666.326 8.62424L666.077 8.44997L666.003 8.12633C665.521 6.23426 664.833 4.92309 663.936 4.19282C663.057 3.46255 661.704 3.09742 659.878 3.09742C659.132 3.09742 658.385 3.13061 657.638 3.197H657.339V30.1838L660.277 32.8974H648.9L652.385 29.9847V5.21354L650.617 5.18865C648.908 5.18865 647.688 5.52889 646.958 6.20937C646.244 6.87325 645.821 8.05164 645.688 9.74454H645.041C645.223 7.80269 645.721 6.45002 646.534 5.68656C647.364 4.92309 648.725 4.54136 650.617 4.54136L652.111 4.56626H652.385V3.34637C651.538 3.24679 650.734 3.197 649.97 3.197C647.829 3.197 646.285 3.63682 645.339 4.51647C644.393 5.37951 643.871 6.84835 643.771 8.92299H643.472C642.759 6.616 641.655 4.04345 640.161 1.20535L640.012 0.956396H669.986ZM671.555 2.52482C670.409 3.98536 669.206 6.40853 667.945 9.79433L667.845 10.0433L667.297 9.57027L667.372 9.34621C668.6 5.91062 669.787 3.52064 670.932 2.17628L671.057 2.02691L671.555 2.52482ZM664.907 6.40853C663.629 5.57868 662.136 5.16375 660.426 5.16375C660.044 5.16375 659.646 5.18865 659.231 5.23844L659.331 30.2585L663.289 34.9389H650.568L649.995 34.2667H661.92L658.584 30.4577V4.51647L659.928 4.49157C661.538 4.49157 662.675 4.62435 663.339 4.8899C664.019 5.13886 664.542 5.64507 664.907 6.40853ZM698.741 0.956396L698.342 1.42941C696.649 3.50405 695.305 5.88572 694.309 8.57445C694.143 8.19272 694.019 7.91057 693.936 7.728C693.023 5.73635 692.044 4.45008 690.998 3.86918C689.952 3.28828 688.077 2.99783 685.372 2.99783C684.127 2.99783 682.633 3.03933 680.89 3.12231V14.5743H682.484V4.44178C683.745 4.3256 684.948 4.26751 686.094 4.26751C688.201 4.26751 689.753 4.49157 690.749 4.93969C691.745 5.38781 692.633 6.25916 693.413 7.55373C693.181 7.38776 693.015 7.26328 692.915 7.1803C691.571 6.11808 690.6 5.48739 690.002 5.28823C689.405 5.08907 688.226 4.98948 686.467 4.98948C685.936 4.98948 684.99 5.02268 683.629 5.08907L683.106 5.11396V14.5743H687.687L690.898 10.1678V20.8978L687.687 16.7402H680.89V30.7066H682.484V17.9103H687.886L688.533 18.5576H683.106V30.7066C686.492 30.7066 688.898 30.466 690.326 29.9847C691.753 29.5033 692.873 28.5573 693.687 27.1466L695.006 24.8811C695.056 24.7815 695.156 24.5989 695.305 24.3334C695.736 26.159 696.268 27.6196 696.898 28.715C697.546 29.8104 698.608 31.0884 700.085 32.5489H672.177L675.961 29.661V18.5576C674.567 18.7236 673.306 19.1551 672.177 19.8522L671.828 19.3293C672.841 18.5991 674.218 18.1261 675.961 17.9103V16.7402C675.679 16.707 675.48 16.6904 675.364 16.6904C673.671 16.6904 672.127 17.3128 670.733 18.5576C671.496 15.9021 673.239 14.5743 675.961 14.5743V3.94387L672.177 0.956396H698.741ZM699.936 2.69909L699.761 2.92315C697.736 5.64507 696.384 7.92716 695.703 9.76944L695.28 9.24663C696.392 6.67409 697.828 4.3173 699.587 2.17628L699.936 2.69909ZM692.616 10.9893V21.9932L691.994 21.6695V10.6657L692.616 10.9893ZM702.923 32.6983L701.628 34.9389H674.442L674.044 34.2667H701.305L702.151 32.6983C699.761 30.4909 698.077 28.1341 697.097 25.6279L697.894 25.9267C698.807 28.0511 700.35 30.1755 702.525 32.3L702.923 32.6983Z" fill="black"/>
</svg>
