<svg width="192" height="3" viewBox="0 0 192 3" fill="none" xmlns="http://www.w3.org/2000/svg">
<path fill-rule="evenodd" clip-rule="evenodd" d="M190.571 0.375122H1.41565C1.24977 0.376975 1.0859 0.411542 0.933386 0.476799C0.780876 0.542055 0.64273 0.636729 0.526853 0.755432C0.410976 0.874135 0.319638 1.01454 0.258075 1.16858C0.196512 1.32262 0.16593 1.48727 0.168074 1.65314C0.169674 1.98352 0.301627 2.29994 0.535247 2.53356C0.768868 2.76718 1.08526 2.89915 1.41565 2.90075H190.571C190.901 2.89862 191.217 2.76647 191.451 2.53297C191.684 2.29946 191.816 1.98336 191.818 1.65314C191.822 1.3183 191.693 0.995645 191.459 0.756026C191.225 0.516407 190.906 0.379401 190.571 0.375122Z" fill="url(#paint0_linear_1537_1680)"/>
<defs>
<linearGradient id="paint0_linear_1537_1680" x1="0.168074" y1="1.63895" x2="191.818" y2="1.63895" gradientUnits="userSpaceOnUse">
<stop stop-color="#75BE45"/>
<stop offset="0.17" stop-color="#60B64D"/>
<stop offset="1" stop-color="#2EA271"/>
</linearGradient>
</defs>
</svg>
