<svg xmlns="http://www.w3.org/2000/svg" fill="none" viewBox="0 0 109 51"><path d="M24 11.958a3.283 3.283 0 0 1-.489 1.491 8.2 8.2 0 0 1-.768 1.05 18.642 18.642 0 0 1-1.757 1.719 362.227 362.227 0 0 1-1.805 1.586 48.841 48.841 0 0 0-3.568 3.387 21.765 21.765 0 0 0-3.273 4.488 10.172 10.172 0 0 0-1.269 5.449c.043.74.153 1.475.33 2.195.04.174.093.356.158.549l.184.536a.057.057 0 0 0 .037-.028.058.058 0 0 0 .006-.046l-.018-.069a10.692 10.692 0 0 1 .11-2.774 15.56 15.56 0 0 1 1.925-5.23 26.191 26.191 0 0 1 3.086-4.22c.387-.439.686-.764.895-.976a234.725 234.725 0 0 0 2.803-2.854c.239-.246.536-.58.892-1.003l.775-.962a11.427 11.427 0 0 0 1.4-2.465 6.69 6.69 0 0 0 .294-.916 14.2 14.2 0 0 0 .06-.315l.02-.11c.008-.048.017-.122.019-.142a1.029 1.029 0 0 0-.046-.34Zm-2.987 4.375v-.008.008Zm-.006-.02v.006-.007Z" fill="#178F0B"/><path d="M38.996 26.197a19.52 19.52 0 0 0-5.05-9.299l-1.05-1.02a21.203 21.203 0 0 0-1.885-1.503 1.12 1.12 0 0 1 0 .306 10.961 10.961 0 0 1-1.204 4.095c-.066.13-.135.257-.205.383.185.104.365.217.539.34.12.078.232.168.335.268.1.104.193.214.279.33.233.311.456.628.7.931a15.835 15.835 0 0 1 2.925 5.599c.248.997.415 2.012.499 3.036.048.576.058 1.154.03 1.732a16.526 16.526 0 0 1-.635 3.628c-.28.956-.663 1.879-1.142 2.753a14.525 14.525 0 0 1-2.067 2.947 13.949 13.949 0 0 1-2.305 2.127c-.662.485-1.36.92-2.086 1.302a7.698 7.698 0 0 1-1.317.522c-1.078.335-2.03.586-2.854.754-.856.175-1.727.266-2.6.272-.338 0-.743-.02-1.214-.06a14.336 14.336 0 0 1-1.338-.164 18.227 18.227 0 0 1-1.44-.335 44.08 44.08 0 0 1-2.494-.759 10.405 10.405 0 0 1-1.472-.733 15.267 15.267 0 0 1-5.03-4.933 15.951 15.951 0 0 1-1.766-3.936 1.397 1.397 0 0 1-.03-.165 15.01 15.01 0 0 1-.255-6.838c.146-.73.338-1.449.574-2.155.34-.938.774-1.84 1.292-2.693.43-.744.922-1.448 1.473-2.107a14.702 14.702 0 0 1 2.325-2.178 62.062 62.062 0 0 0 2.293-1.742l2.25-1.92c.467-.43.93-.865 1.393-1.301.462-.436.886-.857 1.31-1.303a42.445 42.445 0 0 0 3.118-3.658c.399-.526.794-1.058 1.16-1.607.34-.494.635-1.015.968-1.514.104-.168.321-.568.653-1.2.027-.051 2.58-3.424 1.778-4.385h-.006a.019.019 0 0 0-.027.008 14.08 14.08 0 0 1-1.897 2.946 29.363 29.363 0 0 1-1.823 1.976 39.614 39.614 0 0 1-3.705 3.191 55.15 55.15 0 0 1-3.367 2.407A408.925 408.925 0 0 0 10 13.59a38.346 38.346 0 0 0-2.513 1.866 19.516 19.516 0 0 0-3.827 3.917A19.22 19.22 0 0 0 .101 32.624a19.44 19.44 0 0 0 1.873 6.563 19.768 19.768 0 0 0 6.367 7.52c3.524 2.478 7.44 3.694 11.746 3.646.41-.004.814-.023 1.213-.056a19.8 19.8 0 0 0 16.422-11.533 19.65 19.65 0 0 0 1.274-12.567ZM2.998 39.225h.008-.013.005Zm35.827-12.828a.025.025 0 0 0 .006-.008l-.006.009Zm.583 5.175h.009a.011.011 0 0 1-.009 0Z" fill="url(#a)"/><path d="M31.576 20.938a6.258 6.258 0 0 0-1.938-1.84c-.105.186-.246.432-.425.714-.208.338-.435.663-.68.976-.58.725-1.207 1.231-1.183 1.258 0 0 .013 0 .024-.008.082-.043.86.919.945 1.021.137.162.267.33.396.496.098-.066.194-.136.288-.207.86-.859 1.6-1.757 2.573-2.41Z" fill="url(#b)"/><path d="M34.907 29.628a19.287 19.287 0 0 0-.5-3.046c-.353-1.427-.994-2.761-1.772-4-.346-.548-.683-1.113-1.062-1.646-.974.659-1.713 1.551-2.571 2.415a5.41 5.41 0 0 1-.289.207c.158.21.31.422.457.64.534.79.959 1.648 1.261 2.553.193.577.343 1.168.447 1.767a11.575 11.575 0 0 1-1.35 7.696c-2.8 4.846-9.433 6.577-14.465 4.462a10.663 10.663 0 0 1-5.819-6.052 11.55 11.55 0 0 1-.495-6.518c.258-1.34.78-2.614 1.537-3.75a13.19 13.19 0 0 1 1.807-2.152 28.64 28.64 0 0 1 2.409-2.008c.393-.313.796-.611 1.207-.894.48-.329.811-.56.997-.698 1.087-.805 2.17-1.616 3.248-2.432a.28.28 0 0 0-.16-.018.278.278 0 0 1 .168.017c.574-.434 1.183-.93 1.824-1.49a11.49 11.49 0 0 0 1.136-1.125c.137-.157.243-.277.321-.358l.22-.234a1.28 1.28 0 0 0 .19-.256 3.15 3.15 0 0 0 .284-.696.116.116 0 0 1 .012-.026.044.044 0 0 1 .023-.018.031.031 0 0 1 .019 0c.027.095.042.194.043.293a.533.533 0 0 1 0 .101 5.692 5.692 0 0 1-.365 1.347c-.363.879-.833 1.71-1.399 2.474l-.773.963c-.357.423-.655.759-.894 1.007-.616.641-1.55 1.593-2.803 2.854-.208.211-.506.537-.894.978a26.266 26.266 0 0 0-3.086 4.23 15.652 15.652 0 0 0-1.926 5.243 10.744 10.744 0 0 0-.11 2.78l.018.07c.011.045-.005.058-.042.075l.154.343a.037.037 0 0 0 .052.014l.2-.116c-.068-.036-.09-.081-.068-.134a.885.885 0 0 0 .032-.078 14.32 14.32 0 0 1 .712-2.127c.803-1.88 2.95-4.838 3.066-4.972a42.902 42.902 0 0 1 1.088-1.215c.226-.242.522-.55 1.117-1.17.317-.329.477-.496.55-.568.328-.34.816-.815 1.447-1.376l3.086-2.891a18.624 18.624 0 0 0 1.707-1.81c.31-.375.549-.696.719-.92a10.98 10.98 0 0 0 1.777-3.722c.135-.511.199-.906.22-1.015.117-.782.145-1.575.085-2.364a7.571 7.571 0 0 0-.165-1.2c-.064-.28-.11-.387-.258-.879-.024-.078-.18-.615-.489-1.69L26.4 5.139c-.11-.371-.16-.558-.169-.59a20.18 20.18 0 0 1-.387-1.66c-.225-1.162-.2-1.558-.42-1.607-.612-.133-1.352 2.791-3.842 6.439a28.855 28.855 0 0 1-1.537 2.048 46.697 46.697 0 0 1-3.096 3.403c-.322.32-.936.898-1.842 1.73l.03.017c.005.002.01.002.014 0a.036.036 0 0 1-.025 0l-.028-.016-2.255 1.924a59.161 59.161 0 0 1-2.296 1.749 14.745 14.745 0 0 0-2.325 2.184 14.948 14.948 0 0 0-1.474 2.113c-.52.856-.953 1.762-1.293 2.703-.237.708-.43 1.43-.575 2.163a15.111 15.111 0 0 0 .255 6.86c.007.057.017.112.031.166.406 1.392 1 2.721 1.765 3.953a15.284 15.284 0 0 0 5.034 4.945c.47.284.963.53 1.473.735.823.279 1.654.532 2.493.762.476.131.956.243 1.441.336.287.055.733.11 1.34.164.47.041.878.062 1.213.06a13.408 13.408 0 0 0 2.602-.271c.826-.17 1.778-.422 2.855-.758.453-.134.894-.31 1.317-.523.726-.384 1.423-.82 2.086-1.306a14.059 14.059 0 0 0 2.305-2.134 14.481 14.481 0 0 0 2.065-2.964c.479-.877.862-1.803 1.143-2.762.347-1.186.56-2.407.635-3.64.029-.578.02-1.157-.025-1.733Zm-24.648-5.469s-.005-.004-.002-.004l.002.004Zm-3.206 10.28v.007a.048.048 0 0 1-.002-.008h.002Zm.242 0s0-.003-.002-.004l.002.003Z" fill="url(#c)"/><g filter="url(#d)"><path d="M30.516 14.384a11.796 11.796 0 0 1-3.733 7.696l3.733-7.696Z" fill="#000"/></g><path d="M31.002 12.315a15.132 15.132 0 0 0-.623-3.42 18.847 18.847 0 0 0-1.15-3.035c-.11-.232-.449-.92-1.507-2.614-1.384-2.21-2.077-3.317-2.278-3.242-.627.248 1.56 7.413 1.779 8.123.145.473.272.87.364 1.154 0 .017.009.033.014.05 0 .05.01.11.017.163a8.3 8.3 0 0 1 .03 1.824c-.02.33-.043.798-.05 1.388a9.89 9.89 0 0 1-.956 2.938c-.312.616-.667 1.21-1.06 1.778a.203.203 0 0 0-.059.064c-.203.29-.423.567-.658.832a26.549 26.549 0 0 1-1.713 1.793l-3.1 2.892a62.039 62.039 0 0 0-2.005 1.97 29.624 29.624 0 0 0-2.158 2.385 19.776 19.776 0 0 0-3.065 4.958 14.45 14.45 0 0 0-.707 2.13l-.033.076c-.022.053 0 .096.068.134a5.58 5.58 0 0 0 .45-.358c.732-.641 1.458-1.287 2.178-1.939a66.166 66.166 0 0 1 4.725-3.894l2.69-2.02a81.455 81.455 0 0 0 1.68-1.31 39.397 39.397 0 0 0 3.416-3.06.06.06 0 0 1 .051-.02.067.067 0 0 1 .031.017.26.26 0 0 0 .16-.088c.121-.14.24-.283.357-.429a12.999 12.999 0 0 0 1.929-2.795 10.968 10.968 0 0 0 1.2-4.09 1.275 1.275 0 0 0 0-.306c0-.062.009-.239.03-.53a8.037 8.037 0 0 0-.047-1.519Zm-3.404-3.248v.078-.078Zm0 3.623a18.983 18.983 0 0 0-.001.011l.001-.011Z" fill="url(#e)"/><g filter="url(#f)"><path d="M48.532 27.846c-2.007 0-3.315-.79-4.196-1.854-1.427-1.702-1.581-4.075-1.581-9.213 0-5.139.151-7.511 1.58-9.214.879-1.064 2.19-1.855 4.197-1.855 1.672 0 2.95.549 3.861 1.46 1.065 1.098 1.613 2.675 1.673 4.53h-3.403c-.033-1.185-.277-2.914-2.13-2.914-.822 0-1.308.335-1.612.82-.67 1.035-.76 3.224-.76 7.177 0 3.953.09 6.142.76 7.176.304.486.79.821 1.611.821 1.49 0 2.129-1.277 2.129-2.767v-3.38h-2.129v-2.797h5.534v5.99c0 3.953-2.28 6.02-5.534 6.02Zm16.783-.242-2.828-8.879h-1.914v8.879H57.17V5.954h5.473c3.952 0 5.534 1.915 5.534 6.385 0 2.675-.549 4.591-2.525 5.656l3.223 9.609h-3.56ZM62.672 9.025h-2.1v6.628h2.1c1.824 0 2.097-1.52 2.097-3.314 0-1.793-.273-3.314-2.097-3.314Zm9.031 18.579V5.954h9.09v3.073h-5.686v6.142h4.896v3.074h-4.896v6.295h5.687v3.073l-9.09-.007Zm12.042 0V5.954h9.092v3.073H87.15v6.142h4.896v3.074H87.15v6.295h5.687v3.073l-9.092-.007Zm20.556 0-5.11-12.863v12.863H95.79V5.954h3.04l5.079 12.862V5.954h3.403v21.65h-3.01Z" fill="#61BE66"/></g><path d="M50.017 46.397c-.786.809-1.827 1.202-3.052 1.202s-2.289-.393-3.074-1.202c-.715-.74-1.131-1.78-1.131-3.03V30.953h2.588v12.555c0 1.18.74 1.757 1.62 1.757.879 0 1.594-.578 1.594-1.757V30.952h2.592v12.413c0 1.252-.42 2.292-1.137 3.032Zm8.324 1.017v-8.762c0-.949-.532-1.41-1.208-1.41-.675 0-1.202.461-1.202 1.41v8.762h-2.445V35.23h2.358v.901c.207-.278.508-.601.809-.768a2.414 2.414 0 0 1 1.225-.324c.994 0 1.665.3 2.22.948.485.555.693 1.225.693 2.635v8.782l-2.45.011Zm4.647-13.734v-2.705h2.705v2.705h-2.705Zm.138 13.734V35.558h2.451v11.856h-2.45Zm9.364 0H69.9L66.873 35.23h2.706l1.618 8.3 1.595-8.3h2.705l-3.005 12.185Zm6.267-5.387c0 1.387.07 2.428.37 2.89a1.107 1.107 0 0 0 .948.486A1.082 1.082 0 0 0 81 44.94c.208-.254.3-.693.3-1.11h2.451c-.046 1.087-.3 2.012-1.04 2.798-.648.694-1.503.97-2.635.97-1.087 0-1.896-.23-2.634-.993-1.018-1.064-1.133-3.074-1.133-5.294 0-2.196.11-4.232 1.133-5.295.74-.763 1.618-.972 2.612-.972 1.018 0 1.85.209 2.613.972.971.97 1.133 3.098 1.133 6.011h-5.043ZM81 37.703a1.17 1.17 0 0 0-1.897 0c-.253.37-.346 1.087-.346 2.525h2.586c0-1.438-.089-2.155-.343-2.525Zm9.271-.278c-1.156 0-2.034.787-2.034 2.105v7.884h-2.451V35.23h2.363v1.294a3.577 3.577 0 0 1 1.064-.971 3.632 3.632 0 0 1 1.896-.509v2.381l-.838.002Zm8.163 9.18c-.74.74-1.62.994-2.659.994-1.04 0-2.058-.346-2.683-.994-.716-.74-1.086-1.595-1.086-2.752h2.428c0 .486.138.878.416 1.157a1.402 1.402 0 0 0 1.873.023c.231-.209.347-.578.347-.971a1.516 1.516 0 0 0-.255-.902c-.184-.277-.508-.51-.947-.693l-1.62-.717c-.832-.37-1.427-.855-1.78-1.411-.277-.44-.392-.995-.392-1.664 0-1.18.416-1.943 1.063-2.613.67-.67 1.619-1.018 2.634-1.018 1.016 0 1.942.324 2.566.925.647.624 1.04 1.48 1.04 2.706h-2.404c0-.533-.116-.856-.347-1.11a1.122 1.122 0 0 0-.855-.37 1.191 1.191 0 0 0-1.25 1.271 1.18 1.18 0 0 0 .186.717c.162.255.486.508.902.694l1.618.694c.833.37 1.387.763 1.78 1.34.324.463.51 1.156.51 1.99.002 1.201-.461 2.08-1.085 2.704Zm5.04-4.578c0 1.387.069 2.428.37 2.89a1.11 1.11 0 0 0 .949.486 1.079 1.079 0 0 0 .924-.463c.208-.254.301-.693.301-1.11h2.451c-.047 1.087-.301 2.012-1.041 2.798-.647.694-1.503.97-2.634.97-1.087 0-1.896-.23-2.635-.993-1.018-1.064-1.133-3.074-1.133-5.294 0-2.196.115-4.232 1.133-5.295.74-.763 1.618-.972 2.613-.972 1.016 0 1.849.209 2.612.972.971.97 1.133 3.098 1.133 6.011h-5.043Zm2.24-4.324a1.176 1.176 0 0 0-.948-.485 1.168 1.168 0 0 0-.948.485c-.255.37-.347 1.087-.347 2.525h2.589c.004-1.438-.088-2.155-.346-2.525Z" fill="#D6D6D6"/><defs><linearGradient id="a" x1="19.748" x2="19.748" y1="8.423" y2="47.924" gradientUnits="userSpaceOnUse"><stop stop-color="#7FC63D"/><stop offset="1" stop-color="#3BA96A"/></linearGradient><linearGradient id="b" x1="28.346" x2="30.214" y1="20.044" y2="22.443" gradientUnits="userSpaceOnUse"><stop stop-color="#76C045"/><stop offset=".17" stop-color="#60B84E"/><stop offset="1" stop-color="#59B553"/></linearGradient><linearGradient id="c" x1="19.779" x2="19.779" y1="13.009" y2="43.363" gradientUnits="userSpaceOnUse"><stop stop-color="#76C045"/><stop offset=".17" stop-color="#60B84E"/><stop offset="1" stop-color="#2FA471"/></linearGradient><linearGradient id="e" x1="26.167" x2="20.468" y1="10.307" y2="28.425" gradientUnits="userSpaceOnUse"><stop stop-color="#77C243"/><stop offset=".17" stop-color="#64BA4D"/><stop offset="1" stop-color="#2FA471"/></linearGradient><filter id="d" width="29.692" height="33.655" x="20.753" y="4.184" color-interpolation-filters="sRGB" filterUnits="userSpaceOnUse"><feFlood flood-opacity="0" result="BackgroundImageFix"/><feColorMatrix in="SourceAlpha" result="hardAlpha" type="matrix" values="0 0 0 0 0 0 0 0 0 0 0 0 0 0 0 0 0 0 127 0"/><feOffset dx="6.95" dy="2.78"/><feGaussianBlur stdDeviation="6.49"/><feColorMatrix type="matrix" values="0 0 0 0 0 0 0 0 0 0 0 0 0 0 0 0 0 0 0.25 0"/><feBlend in2="BackgroundImageFix" mode="normal" result="effect1_dropShadow_350_302"/><feBlend in="SourceGraphic" in2="effect1_dropShadow_350_302" mode="normal" result="shape"/></filter><filter id="f" width="66.056" height="24.637" x="42.755" y="5.71" color-interpolation-filters="sRGB" filterUnits="userSpaceOnUse"><feFlood flood-opacity="0" result="BackgroundImageFix"/><feColorMatrix in="SourceAlpha" result="hardAlpha" type="matrix" values="0 0 0 0 0 0 0 0 0 0 0 0 0 0 0 0 0 0 127 0"/><feOffset dx="1" dy="2"/><feGaussianBlur stdDeviation=".25"/><feColorMatrix type="matrix" values="0 0 0 0 0 0 0 0 0 0 0 0 0 0 0 0 0 0 0.25 0"/><feBlend in2="BackgroundImageFix" mode="normal" result="effect1_dropShadow_350_302"/><feBlend in="SourceGraphic" in2="effect1_dropShadow_350_302" mode="normal" result="shape"/></filter></defs></svg>